/* XPM */
static char *epos_mtd_0[] = {
/* columns rows colors chars-per-pixel */
"16 16 17 1 ",
"  c black",
". c #002838",
"X c #084078",
"o c #E0A828",
"O c #B0A058",
"+ c #186088",
"@ c #306888",
"# c #2870B0",
"$ c #407080",
"% c #5088B0",
"& c #68A0D8",
"* c #F8E090",
"= c #A0B0D0",
"- c #A8C8E8",
"; c #E0E0D8",
": c #E8F0F8",
"> c None",
/* pixels */
">>>>>>.XX.>>>>>>",
">>>>.@%#%%#X >>>",
">> $&&&&&-&&% >>",
"> %::-:::-&### >",
">X-::-:::-&#X#+>",
" $#%=---=$###@X.",
"X%X+$$$Ooo$X.@+X",
"X#$@%++O**o..X+#",
"X#@$$+%O*;oX.XX#",
"X#%$$+&%OO@XX++#",
" X%%++@@++$$$$#.",
">X#%XX#&&%=;=#X>",
"> X+XX###%=;=@ >",
">> X++++#%%%$ >>",
">>> .X$$XXX. >>>",
">>>>>  ... >>>>>"
};
